<svg preserveAspectRatio="none" width="750" height="270" viewBox="0 0 750 270" xmlns="http://www.w3.org/2000/svg">
            <path d="M 0 0 L 130 0 Q 150 0 170 0 L 280 0 Q 300 0 320 0 L 430 0 Q 450 0 470 0 L 580 0 Q 600 0 620 0 L 730 0 Q 750 0 750 20 L 750 70 Q 750 90 730 90 L 620 90 Q 600 90 600 110 L 600 160 Q 600 180 580 180 L 470 180 Q 450 180 450 200 L 450 250 Q 450 270 430 270 L 320 270 Q 300 270 300 250 L 300 200 Q 300 180 280 180 L 170 180 Q 150 180 150 160 L 150 110 Q 150 90 130 90 L 20 90 Q 0 90 20 90 L 130 90 Q 150 90 130 90 L 20 90 Q 0 90 20 90 L 130 90 Q 150 90 130 90 L 20 90 Q 0 90 20 90 L 130 90 Q 150 90 130 90 L 20 90 Q 0 90 20 90 L 130 90 Q 150 90 130 90 L 20 90 Q 0 90 20 90 L 130 90 Q 150 90 130 90 L 20 90 Q 0 90 20 90 L 130 90 Q 150 90 130 90 L 20 90 Q 0 90 20 90 L 130 90 Q 150 90 130 90 L 20 90 Q 0 90 20 90 L 130 90 Q 150 90 130 90 L 20 90 Q 0 90 20 90 L 130 90 Q 150 90 130 90 L 20 90 Q 0 90 20 90 L 130 90 Q 150 90 130 90 L 20 90 Q 0 90 20 90 L 130 90 Q 150 90 130 90 L 20 90 Q 0 90 20 90 L 130 90 Q 150 90 130 90 L 20 90 Q 0 90 20 90 L 130 90 Q 150 90 130 90 L 20 90 Q 0 90 20 90 L 130 90 Q 150 90 130 90 L 20 90 Q 0 90 20 90 L 130 90 Q 150 90 130 90 L 20 90 Q 0 90 20 90 L 130 90 Q 150 90 130 90 L 20 90 Q 0 90 20 90 L 130 90 Q 150 90 130 90 L 20 90 Q 0 90 20 90 L 130 90 Q 150 90 130 90 L 20 90 Q 0 90 20 90 L 130 90 Q 150 90 130 90 L 20 90 Q 0 90 20 90 L 130 90 Q 150 90 130 90 L 20 90 Q 0 90 20 90 L 130 90 Q 150 90 130 90 L 20 90 Q 0 90 20 90 L 130 90 Q 150 90 130 90 L 20 90 Q 0 90 20 90 L 130 90 Q 150 90 130 90 L 20 90 Q 0 90 20 90 L 130 90 Q 150 90 130 90 L 20 90 Q 0 90 20 90 L 130 90 Q 150 90 130 90 L 20 90 Q 0 90 20 90 L 130 90 Q 150 90 130 90 L 20 90 Q 0 90 20 90 L 130 90 Q 150 90 130 90 L 20 90 Q 0 90 20 90 L 130 90 Q 150 90 130 90 L 20 90 Q 0 90 20 90 L 130 90 Q 150 90 130 90 L 20 90 Q 0 90 20 90 L 130 90 Q 150 90 130 90 L 20 90 Q 0 90 20 90 L 130 90 Q 150 90 130 90 L 20 90 Q 0 90 20 90 L 130 90 Q 150 90 130 90 L 20 90 Q 0 90 20 90 L 130 90 Q 150 90 130 90 L 20 90 Q 0 90 20 90 L 130 90 Q 150 90 130 90 L 20 90 Q 0 90 20 90 L 130 90 Q 150 90 130 90 L 20 90 Q 0 90 20 90 L 130 90 Q 150 90 130 90 L 20 90 Q 0 90 20 90 L 130 90 Q 150 90 130 90 L 20 90 Q 0 90 20 90 L 130 90 Q 150 90 130 90 L 20 90 Q 0 90 20 90 L 130 90 Q 150 90 130 90 L 20 90 Q 0 90 20 90 L 130 90 Q 150 90 130 90 L 20 90 Q 0 90 20 90 L 130 90 Q 150 90 130 90 L 20 90 Q 0 90 20 90 L 130 90 Q 150 90 130 90 L 20 90 Q 0 90 20 90 L 130 90 Q 150 90 130 90 L 20 90 Q 0 90 20 90 L 130 90 Q 150 90 130 90 L 20 90 Q 0 90 20 90 L 130 90 Q 150 90 130 90 L 20 90 Q 0 90 20 90 L 130 90 Q 150 90 130 90 L 20 90 Q 0 90 20 90 L 130 90 Q 150 90 130 90 L 20 90 Q 0 90 20 90 L 130 90 Q 150 90 130 90 L 20 90 Q 0 90 20 90 L 130 90 Q 150 90 130 90 L 20 90 Q 0 90 20 90 L 130 90 Q 150 90 130 90 L 20 90 Q 0 90 20 90 L 130 90 Q 150 90 130 90 L 20 90 Q 0 90 20 90 L 130 90 Q 150 90 130 90 L 20 90 Q 0 90 20 90 L 130 90 Q 150 90 130 90 L 20 90 Q 0 90 20 90 L 130 90 Q 150 90 130 90 L 20 90 Q 0 90 20 90 L 130 90 Q 150 90 130 90 L 20 90 Q 0 90 20 90 L 130 90 Q 150 90 130 90 L 20 90 Q 0 90 20 90 L 130 90 Q 150 90 130 90 L 20 90 Q 0 90 20 90 L 130 90 Q 150 90 130 90 L 20 90 Q 0 90 20 90 L 130 90 Q 150 90 130 90 L 20 90 Q 0 90 20 90 L 130 90 Q 150 90 130 90 L 20 90 Q 0 90 20 90 L 130 90 Q 150 90 130 90 L 20 90 Q 0 90 20 90 L 130 90 Q 150 90 130 90 L 20 90 Q 0 90 20 90 L 130 90 Q 150 90 130 90 L 20 90 Q 0 90 20 90 L 130 90 Q 150 90 130 90 L 20 90 Q 0 90 20 90 L 130 90 Q 150 90 130 90 L 20 90 Q 0 90 20 90 L 130 90 Q 150 90 130 90 L 20 90 Q 0 90 20 90 L 130 90 Q 150 90 130 90 L 20 90 Q 0 90 20 90 L 130 90 Q 150 90 130 90 L 20 90 Q 0 90 20 90 L 130 90 Q 150 90 130 90 L 20 90 Q 0 90 20 90 L 130 90 Q 150 90 130 90 L 20 90 Q 0 90 20 90 L 130 90 Q 150 90 130 90 L 20 90 Q 0 90 20 90 L 130 90 Q 150 90 130 90 L 20 90 Q 0 90 20 90 L 130 90 Q 150 90 130 90 L 20 90 Q 0 90 20 90 L 130 90 Q 150 90 130 90 L 20 90 Q 0 90 20 90 L 130 90 Q 150 90 130 90 L 20 90 Q 0 90 20 90 L 130 90 Q 150 90 130 90 L 20 90 Q 0 90 20 90 L 130 90 Q 150 90 130 90 L 20 90 Q 0 90 20 90 L 130 90 Q 150 90 130 90 L 20 90 Q 0 90 20 90 L 130 90 Q 150 90 130 90 L 20 90 Q 0 90 20 90 L 130 90 Q 150 90 130 90 L 20 90 Q 0 90 20 90 L 130 90 Q 150 90 130 90 L 20 90 Q 0 90 20 90 L 130 90 Q 150 90 130 90 L 20 90 Q 0 90 20 90 L 130 90 Q 150 90 130 90 L 20 90 Q 0 90 20 90 L 130 90 Q 150 90 130 90 L 20 90 Q 0 90 20 90 L 130 90 Q 150 90 130 90 L 20 90 Q 0 90 20 90 L 130 90 Q 150 90 130 90 L 20 90 Q 0 90 20 90 L 130 90 Q 150 90 130 90 L 20 90 Q 0 90 20 90 L 130 90 Q 150 90 130 90 L 20 90 Q 0 90 20 90 L 130 90 Q 150 90 130 90 L 20 90 Q 0 90 20 90 L 130 90 Q 150 90 130 90 L 20 90 Q 0 90 20 90 L 130 90 Q 150 90 130 90 L 20 90 Q 0 90 20 90 L 130 90 Q 150 90 130 90 L 20 90 Q 0 90 20 90 L 130 90 Q 150 90 130 90 L 20 90 Q 0 90 20 90 L 130 90 Q 150 90 130 90 L 20 90 Q 0 90 20 90 L 130 90 Q 150 90 130 90 L 20 90 Q 0 90 20 90 L 130 90 Q 150 90 130 90 L 20 90 Q 0 90 20 90 L 130 90 Q 150 90 130 90 L 20 90 Q 0 90 20 90 L 130 90 Q 150 90 130 90 L 20 90 Q 0 90 20 90 L 130 90 Q 150 90 130 90 L 20 90 Q 0 90 20 90 L 130 90 Q 150 90 130 90 L 20 90 Q 0 90 20 90 L 130 90 Q 150 90 130 90 L 20 90 Q 0 90 20 90 L 130 90 Q 150 90 130 90 L 20 90 Q 0 90 20 90 L 130 90 Q 150 90 130 90 L 20 90 Q 0 90 20 90 L 130 90 Q 150 90 130 90 L 20 90 Q 0 90 20 90 L 130 90 Q 150 90 130 90 L 20 90 Q 0 90 20 90 L 130 90 Q 150 90 130 90 L 20 90 Q 0 90 20 90 L 130 90 Q 150 90 130 90 L 20 90 Q 0 90 20 90 L 130 90 Q 150 90 130 90 L 20 90 Q 0 90 20 90 L 130 90 Q 150 90 130 90 L 20 90 Q 0 90 20 90 L 130 90 Q 150 90 130 90 L 20 90 Q 0 90 20 90 L 130 90 Q 150 90 130 90 L 20 90 Q 0 90 20 90 L 130 90 Q 150 90 130 90 L 20 90 Q 0 90 20 90 L 130 90 Q 150 90 130 90 L 20 90 Q 0 90 20 90 L 130 90 Q 150 90 130 90 L 20 90 Q 0 90 20 90 L 130 90 Q 150 90 130 90 L 20 90 Q 0 90 20 90 L 130 90 Q 150 90 130 90 L 20 90 Q 0 90 20 90 L 130 90 Q 150 90 130 90 L 20 90 Q 0 90 20 90 L 130 90 Q 150 90 130 90 L 20 90 Q 0 90 20 90 L 130 90 Q 150 90 130 90 L 20 90 Q 0 90 20 90 L 130 90 Q 150 90 130 90 L 20 90 Q 0 90 20 90 L 130 90 Q 150 90 130 90 L 20 90 Q 0 90 20 90 L 130 90 Q 150 90 130 90 L 20 90 Q 0 90 20 90 L 130 90 Q 150 90 130 90 L 20 90 Q 0 90 20 90 L 130 90 Q 150 90 130 90 L 20 90 Q 0 90 20 90 L 130 90 Q 150 90 130 90 L 20 90 Q 0 90 20 90 L 130 90 Q 150 90 130 90 L 20 90 Q 0 90 20 90 L 130 90 Q 150 90 130 90 L 20 90 Q 0 90 20 90 L 130 90 Q 150 90 130 90 L 20 90 Q 0 90 20 90 L 130 90 Q 150 90 130 90 L 20 90 Q 0 90 20 90 L 130 90 Q 150 90 130 90 L 20 90 Q 0 90 20 90 L 130 90 Q 150 90 130 90 L 20 90 Q 0 90 20 90 L 130 90 Q 150 90 130 90 L 20 90 Q 0 90 20 90 L 130 90 Q 150 90 130 90 L 20 90 Q 0 90 20 90 L 130 90 Q 150 90 130 90 L 20 90 Q 0 90 20 90 L 130 90 Q 150 90 130 90 L 20 90 Q 0 90 20 90 L 130 90 Q 150 90 130 90 L 20 90 Q 0 90 20 90 L 130 90 Q 150 90 130 90 L 20 90 Q 0 90 20 90 L 130 90 Q 150 90 130 90 L 20 90 Q 0 90 20 90 L 130 90 Q 150 90 130 90 L 20 90 Q 0 90 20 90 L 130 90 Q 150 90 130 90 L 20 90 Q 0 90 20 90 L 130 90 Q 150 90 130 90 L 20 90 Q 0 90 20 90 L 130 90 Q 150 90 130 90 L 20 90 Q 0 90 20 90 L 130 90 Q 150 90 130 90 L 20 90 Q 0 90 20 90 L 130 90 Q 150 90 130 90 L 20 90 Q 0 90 20 90 L 130 90 Q 150 90 130 90 L 20 90 Q 0 90 20 90 L 130 90 Q 150 90 130 90 L 20 90 Q 0 90 20 90 L 130 90 Q 150 90 130 90 L 20 90 Q 0 90 20 90 L 130 90 Q 150 90 130 90 L 20 90 Q 0 90 20 90 L 130 90 Q 150 90 130 90 L 20 90 Q 0 90 20 90 L 130 90 Q 150 90 130 90 L 20 90 Q 0 90 20 90 L 130 90 Q 150 90 130 90 L 20 90 Q 0 90 20 90 L 130 90 Q 150 90 130 90 L 20 90 Q 0 90 20 90 L 130 90 Q 150 90 130 90 L 20 90 Q 0 90 20 90 L 130 90 Q 150 90 130 90 L 20 90 Q 0 90 20 90 L 130 90 Q 150 90 130 90 L 20 90 Q 0 90 20 90 L 130 90 Q 150 90 130 90 L 20 90 Q 0 90 20 90 L 130 90 Q 150 90 130 90 L 20 90 Q 0 90 20 90 L 130 90 Q 150 90 130 90 L 20 90 Q 0 90 20 90 L 130 90 Q 150 90 130 90 L 20 90 Q 0 90 20 90 L 130 90 Q 150 90 130 90 L 20 90 Q 0 90 20 90 L 130 90 Q 150 90 130 90 L 20 90 Q 0 90 20 90 L 130 90 Q 150 90 130 90 L 20 90 Q 0 90 20 90 L 130 90 Q 150 90 130 90 L 20 90 Q 0 90 20 90 L 130 90 Q 150 90 130 90 L 20 90 Q 0 90 20 90 L 130 90 Q 150 90 130 90 L 20 90 Q 0 90 20 90 L 130 90 Q 150 90 130 90 L 20 90 Q 0 90 20 90 L 130 90 Q 150 90 130 90 L 20 90 Q 0 90 20 90 L 130 90 Q 150 90 130 90 L 20 90 Q 0 90 20 90 L 130 90 Q 150 90 130 90 L 20 90 Q 0 90 20 90 L 130 90 Q 150 90 130 90 L 20 90 Q 0 90 20 90 L 130 90 Q 150 90 130 90 L 20 90 Q 0 90 20 90 L 130 90 Q 150 90 130 90 L 20 90 Q 0 90 20 90 L 130 90 Q 150 90 130 90 L 20 90 Q 0 90 20 90 L 130 90 Q 150 90 130 90 L 20 90 Q 0 90 20 90 L 130 90 Q 150 90 130 90 L 20 90 Q 0 90 20 90 L 130 90 Q 150 90 130 90 L 20 90 Q 0 90 20 90 L 130 90 Q 150 90 130 90 L 20 90 Q 0 90 20 90 L 130 90 Q 150 90 130 90 L 20 90 Q 0 90 20 90 L 130 90 Q 150 90 130 90 L 20 90 Q 0 90 20 90 L 130 90 Q 150 90 130 90 L 20 90 Q 0 90 20 90 L 130 90 Q 150 90 130 90 L 20 90 Q 0 90 20 90 L 130 90 Q 150 90 130 90 L 20 90 Q 0 90 20 90 L 130 90 Q 150 90 130 90 L 20 90 Q 0 90 20 90 L 130 90 Q 150 90 130 90 L 20 90 Q 0 90 20 90 L 130 90 Q 150 90 130 90 L 20 90 Q 0 90 20 90 L 130 90 Q 150 90 130 90 L 20 90 Q 0 90 20 90 L 130 90 Q 150 90 130 90 L 20 90 Q 0 90 20 90 L 130 90 Q 150 90 130 90 L 20 90 Q 0 90 20 90 L 130 90 Q 150 90 130 90 L 20 90 Q 0 90 20 90 L 130 90 Q 150 90 130 90 L 20 90 Q 0 90 20 90 L 130 90 Q 150 90 130 90 L 20 90 Q 0 90 20 90 L 130 90 Q 150 90 130 90 L 20 90 Q 0 90 20 90 L 130 90 Q 150 90 130 90 L 20 90 Q 0 90 20 90 L 130 90 Q 150 90 130 90 L 20 90 Q 0 90 20 90 L 130 90 Q 150 90 130 90 L 20 90 Q 0 90 20 90 L 130 90 Q 150 90 130 90 L 20 90 Q 0 90 20 90 L 130 90 Q 150 90 130 90 L 20 90 Q 0 90 20 90 L 130 90 Q 150 90 130 90 L 20 90 Q 0 90 20 90 L 130 90 Q 150 90 130 90 L 20 90 Q 0 90 20 90 L 130 90 Q 150 90 130 90 L 20 90 Q 0 90 20 90 L 130 90 Q 150 90 130 90 L 20 90 Q 0 90 20 90 L 130 90 Q 150 90 130 90 L 20 90 Q 0 90 20 90 L 130 90 Q 150 90 130 90 L 20 90 Q 0 90 20 90 L 130 90 Q 150 90 130 90 L 20 90 Q 0 90 20 90 L 130 90 Q 150 90 130 90 L 20 90 Q 0 90 20 90 L 130 90 Q 150 90 130 90 L 20 90 Q 0 90 20 90 L 130 90 Q 150 90 130 90 L 20 90 Q 0 90 20 90 L 130 90 Q 150 90 130 90 L 20 90 Q 0 90 20 90 L 130 90 Q 150 90 130 90 L 20 90 Q 0 90 20 90 L 130 90 Q 150 90 130 90 L 20 90 Q 0 90 20 90 L 130 90 Q 150 90 130 90 L 20 90 Q 0 90 20 90 L 130 90 Q 150 90 130 90 L 20 90 Q 0 90 20 90 L 130 90 Q 150 90 130 90 L 20 90 Q 0 90 20 90 L 130 90 Q 150 90 130 90 L 20 90 Q 0 90 20 90 L 130 90 Q 150 90 130 90 L 20 90 Q 0 90 20 90 L 130 90 Q 150 90 130 90 L 20 90 Q 0 90 20 90 L 130 90 Q 150 90 130 90 L 20 90 Q 0 90 20 90 L 130 90 Q 150 90 130 90 L 20 90 Q 0 90 20 90 L 130 90 Q 150 90 130 90 L 20 90 Q 0 90 20 90 L 130 90 Q 150 90 130 90 L 20 90 Q 0 90 20 90 L 130 90 Q 150 90 130 90 L 20 90 Q 0 90 20 90 L 130 90 Q 150 90 130 90 L 20 90 Q 0 90 20 90 L 130 90 Q 150 90 130 90 L 20 90 Q 0 90 20 90 L 130 90 Q 150 90 130 90 L 20 90 Q 0 90 20 90 L 130 90 Q 150 90 130 90 L 20 90 Q 0 90 20 90 L 130 90 Q 150 90 130 90 L 20 90 Q 0 90 20 90 L 130 90 Q 150 90 130 90 L 20 90 Q 0 90 20 90 L 130 90 Q 150 90 130 90 L 20 90 Q 0 90 20 90 L 130 90 Q 150 90 130 90 L 20 90 Q 0 90 20 90 L 130 90 Q 150 90 130 90 L 20 90 Q 0 90 20 90 L 130 90 Q 150 90 130 90 L 20 90 Q 0 90 20 90 L 130 90 Q 150 90 130 90 L 20 90 Q 0 90 20 90 L 130 90 Q 150 90 130 90 L 20 90 Q 0 90 20 90 L 130 90 Q 150 90 130 90 L 20 90 Q 0 90 20 90 L 130 90 Q 150 90 130 90 L 20 90 Q 0 90 20 90 L 130 90 Q 150 90 130 90 L 20 90 Q 0 90 20 90 L 130 90 Q 150 90 130 90 L 20 90 Q 0 90 20 90 L 130 90 Q 150 90 130 90 L 20 90 Q 0 90 20 90 L 130 90 Q 150 90 130 90 L 20 90 Q 0 90 20 90 L 130 90 Q 150 90 130 90 L 20 90 Q 0 90 20 90 L 130 90 Q 150 90 130 90 L 20 90 Q 0 90 20 90 L 130 90 Q 150 90 130 90 L 20 90 Q 0 90 20 90 L 130 90 Q 150 90 130 90 L 20 90 Q 0 90 20 90 L 130 90 Q 150 90 130 90 L 20 90 Q 0 90 20 90 L 130 90 Q 150 90 130 90 L 20 90 Q 0 90 20 90 L 130 90 Q 150 90 130 90 L 20 90 Q 0 90 20 90 L 130 90 Q 150 90 130 90 L 20 90 Q 0 90 20 90 L 130 90 Q 150 90 130 90 L 20 90 Q 0 90 20 90 L 130 90 Q 150 90 130 90 L 20 90 Q 0 90 20 90 L 130 90 Q 150 90 130 90 L 20 90 Q 0 90 20 90 L 130 90 Q 150 90 130 90 L 20 90 Q 0 90 20 90 L 130 90 Q 150 90 130 90 L 20 90 Q 0 90 20 90 L 130 90 Q 150 90 130 90 L 20 90 Q 0 90 20 90 L 130 90 Q 150 90 130 90 L 20 90 Q 0 90 20 90 L 130 90 Q 150 90 130 90 L 20 90 Q 0 90 20 90 L 130 90 Q 150 90 130 90 L 20 90 Q 0 90 20 90 L 130 90 Q 150 90 130 90 L 20 90 Q 0 90 20 90 L 130 90 Q 150 90 130 90 L 20 90 Q 0 90 20 90 L 130 90 Q 150 90 130 90 L 20 90 Q 0 90 20 90 L 130 90 Q 150 90 130 90 L 20 90 Q 0 90 20 90 L 130 90 Q 150 90 130 90 L 20 90 Q 0 90 20 90 L 130 90 Q 150 90 130 90 L 20 90 Q 0 90 20 90 L 130 90 Q 150 90 130 90 L 20 90 Q 0 90 20 90 L 130 90 Q 150 90 130 90 L 20 90 Q 0 90 20 90 L 130 90 Q 150 90 130 90 L 20 90 Q 0 90 20 90 L 130 90 Q 150 90 130 90 L 20 90 Q 0 90 20 90 L 130 90 Q 150 90 130 90 L 20 90 Q 0 90 20 90 L 130 90 Q 150 90 130 90 L 20 90 Q 0 90 20 90 L 130 90 Q 150 90 130 90 L 20 90 Q 0 90 20 90 L 130 90 Q 150 90 130 90 L 20 90 Q 0 90 20 90 L 130 90 Q 150 90 130 90 L 20 90 Q 0 90 20 90 L 130 90 Q 150 90 130 90 L 20 90 Q 0 90 20 90 L 130 90 Q 150 90 130 90 L 20 90 Q 0 90 20 90 L 130 90 Q 150 90 130 90 L 20 90 Q 0 90 20 90 L 130 90 Q 150 90 130 90 L 20 90 Q 0 90 20 90 L 130 90 Q 150 90 130 90 L 20 90 Q 0 90 20 90 L 130 90 Q 150 90 130 90 L 20 90 Q 0 90 20 90 L 130 90 Q 150 90 130 90 L 20 90 Q 0 90 20 90 L 130 90 Q 150 90 130 90 L 20 90 Q 0 90 20 90 L 130 90 Q 150 90 130 90 L 20 90 Q 0 90 20 90 L 130 90 Q 150 90 130 90 L 20 90 Q 0 90 20 90 L 130 90 Q 150 90 130 90 L 20 90 Q 0 90 20 90 L 130 90 Q 150 90 130 90 L 20 90 Q 0 90 20 90 L 130 90 Q 150 90 130 90 L 20 90 Q 0 90 20 90 L 130 90 Q 150 90 130 90 L 20 90 Q 0 90 20 90 L 130 90 Q 150 90 130 90 L 20 90 Q 0 90 20 90 L 130 90 Q 150 90 130 90 L 20 90 Q 0 90 20 90 L 130 90 Q 150 90 130 90 L 20 90 Q 0 90 20 90 L 130 90 Q 150 90 130 90 L 20 90 Q 0 90 20 90 L 130 90 Q 150 90 130 90 L 20 90 Q 0 90 20 90 L 130 90 Q 150 90 130 90 L 20 90 Q 0 90 20 90 L 130 90 Q 150 90 130 90 L 20 90 Q 0 90 20 90 L 130 90 Q 150 90 130 90 L 20 90 Q 0 90 20 90 L 130 90 Q 150 90 130 90 L 20 90 Q 0 90 20 90 L 130 90 Q 150 90 130 90 L 20 90 Q 0 90 20 90 L 130 90 Q 150 90 130 90 L 20 90 Q 0 90 20 90 L 130 90 Q 150 90 130 90 L 20 90 Q 0 90 20 90 L 130 90 Q 150 90 130 90 L 20 90 Q 0 90 20 90 L 130 90 Q 150 90 130 90 L 20 90 Q 0 90 20 90 L 130 90 Q 150 90 130 90 L 20 90 Q 0 90 20 90 L 130 90 Q 150 90 130 90 L 20 90 Q 0 90 20 90 L 130 90 Q 150 90 130 90 L 20 90 Q 0 90 20 90 L 130 90 Q 150 90 130 90 L 20 90 Q 0 90 20 90 L 130 90 Q 150 90 130 90 L 20 90 Q 0 90 20 90 L 130 90 Q 150 90 130 90 L 20 90 Q 0 90 20 90 L 130 90 Q 150 90 130 90 L 20 90 Q 0 90 20 90 L 130 90 Q 150 90 130 90 L 20 90 Q 0 90 20 90 L 130 90 Q 150 90 130 90 L 20 90 Q 0 90 20 90 L 130 90 Q 150 90 130 90 L 20 90 Q 0 90 20 90 L 130 90 Q 150 90 130 90 L 20 90 Q 0 90 20 90 L 130 90 Q 150 90 130 90 L 20 90 Q 0 90 20 90 L 130 90 Q 150 90 130 90 L 20 90 Q 0 90 20 90 L 130 90 Q 150 90 130 90 L 20 90 Q 0 90 20 90 L 130 90 Q 150 90 130 90 L 20 90 Q 0 90 20 90 L 130 90 Q 150 90 130 90 L 20 90 Q 0 90 20 90 L 130 90 Q 150 90 130 90 L 20 90 Q 0 90 20 90 L 130 90 Q 150 90 130 90 L 20 90 Q 0 90 20 90 L 130 90 Q 150 90 130 90 L 20 90 Q 0 90 20 90 L 130 90 Q 150 90 130 90 L 20 90 Q 0 90 20 90 L 130 90 Q 150 90 130 90 L 20 90 Q 0 90 20 90 L 130 90 Q 150 90 130 90 L 20 90 Q 0 90 20 90 L 130 90 Q 150 90 130 90 L 20 90 Q 0 90 20 90 L 130 90 Q 150 90 130 90 L 20 90 Q 0 90 20 90 L 130 90 Q 150 90 130 90 L 20 90 Q 0 90 20 90 L 130 90 Q 150 90 130 90 L 20 90 Q 0 90 20 90 L 130 90 Q 150 90 130 90 L 20 90 Q 0 90 20 90 L 130 90 Q 150 90 130 90 L 20 90 Q 0 90 20 90 L 130 90 Q 150 90 130 90 L 20 90 Q 0 90 20 90 L 130 90 Q 150 90 130 90 L 20 90 Q 0 90 20 90 L 130 90 Q 150 90 130 90 L 20 90 Q 0 90 20 90 L 130 90 Q 150 90 130 90 L 20 90 Q 0 90 20 90 L 130 90 Q 150 90 130 90 L 20 90 Q 0 90 20 90 L 130 90 Q 150 90 130 90 L 20 90 Q 0 90 20 90 L 130 90 Q 150 90 130 90 L 20 90 Q 0 90 20 90 L 130 90 Q 150 90 130 90 L 20 90 Q 0 90 20 90 L 130 90 Q 150 90 130 90 L 20 90 Q 0 90 20 90 L 130 90 Q 150 90 130 90 L 20 90 Q 0 90 20 90 L 130 90 Q 150 90 130 90 L 20 90 Q 0 90 20 90 L 130 90 Q 150 90 130 90 L 20 90 Q 0 90 20 90 L 130 90 Q 150 90 130 90 L 20 90 Q 0 90 20 90 L 130 90 Q 150 90 130 90 L 20 90 Q 0 90 20 90 L 130 90 Q 150 90 130 90 L 20 90 Q 0 90 20 90 L 130 90 Q 150 90 130 90 L 20 90 Q 0 90 20 90 L 130 90 Q 150 90 130 90 L 20 90 Q 0 90 20 90 L 130 90 Q 150 90 130 90 L 20 90 Q 0 90 20 90 L 130 90 Q 150 90 130 90 L 20 90 Q 0 90 20 90 L 130 90 Q 150 90 130 90 L 20 90 Q 0 90 20 90 L 130 90 Q 150 90 130 90 L 20 90 Q 0 90 20 90 L 130 90 Q 150 90 130 90 L 20 90 Q 0 90 20 90 L 130 90 Q 150 90 130 90 L 20 90 Q 0 90 20 90 L 130 90 Q 150 90 130 90 L 20 90 Q 0 90 20 90 L 130 90 Q 150 90 130 90 L 20 90 Q 0 90 20 90 L 130 90 Q 150 90 130 90 L 20 90 Q 0 90 20 90 L 130 90 Q 150 90 130 90 L 20 90 Q 0 90 20 90 L 130 90 Q 150 90 130 90 L 20 90 Q 0 90 20 90 L 130 90 Q 150 90 130 90 L 20 90 Q 0 90 20 90 L 130 90 Q 150 90 130 90 L 20 90 Q 0 90 20 90 L 130 90 Q 150 90 130 90 L 20 90 Q 0 90 20 90 L 130 90 Q 150 90 130 90 L 20 90 Q 0 90 20 90 L 130 90 Q 150 90 130 90 L 20 90 Q 0 90 20 90 L 130 90 Q 150 90 130 90 L 20 90 Q 0 90 20 90 L 130 90 Q 150 90 130 90 L 20 90 Q 0 90 20 90 L 130 90 Q 150 90 130 90 L 20 90 Q 0 90 20 90 L 130 90 Q 150 90 130 90 L 20 90 Q 0 90 20 90 L 130 90 Q 150 90 130 90 L 20 90 Q 0 90 20 90 L 130 90 Q 150 90 130 90 L 20 90 Q 0 90 20 90 L 130 90 Q 150 90 130 90 L 20 90 Q 0 90 20 90 L 130 90 Q 150 90 130 90 L 20 90 Q 0 90 20 90 L 130 90 Q 150 90 130 90 L 20 90 Q 0 90 20 90 L 130 90 Q 150 90 130 90 L 20 90 Q 0 90 20 90 L 130 90 Q 150 90 130 90 L 20 90 Q 0 90 20 90 L 130 90 Q 150 90 130 90 L 20 90 Q 0 90 20 90 L 130 90 Q 150 90 130 90 L 20 90 Q 0 90 20 90 L 130 90 Q 150 90 130 90 L 20 90 Q 0 90 20 90 L 130 90 Q 150 90 130 90 L 20 90 Q 0 90 20 90 L 130 90 Q 150 90 130 90 L 20 90 Q 0 90 20 90 L 130 90 Q 150 90 130 90 L 20 90 Q 0 90 20 90 L 130 90 Q 150 90 130 90 L 20 90 Q 0 90 20 90 L 130 90 Q 150 90 130 90 L 20 90 Q 0 90 20 90 L 130 90 Q 150 90 130 90 L 20 90 Q 0 90 20 90 L 130 90 Q 150 90 130 90 L 20 90 Q 0 90 20 90 L 130 90 Q 150 90 130 90 L 20 90 Q 0 90 20 90 L 130 90 Q 150 90 130 90 L 20 90 Q 0 90 20 90 L 130 90 Q 150 90 130 90 L 20 90 Q 0 90 20 90 L 130 90 Q 150 90 130 90 L 20 90 Q 0 90 20 90 L 130 90 Q 150 90 130 90 L 20 90 Q 0 90 20 90 L 130 90 Q 150 90 130 90 L 20 90 Q 0 90 20 90 L 130 90 Q 150 90 130 90 L 20 90 Q 0 90 20 90 L 130 90 Q 150 90 130 90 L 20 90 Q 0 90 20 90 L 130 90 Q 150 90 130 90 L 20 90 Q 0 90 20 90 L 130 90 Q 150 90 130 90 L 20 90 Q 0 90 20 90 L 130 90 Q 150 90 130 90 L 20 90 Q 0 90 20 90 L 130 90 Q 150 90 130 90 L 20 90 Q 0 90 20 90 L 130 90 Q 150 90 130 90 L 20 90 Q 0 90 20 90 L 130 90 Q 150 90 130 90 L 20 90 Q 0 90 20 90 L 130 90 Q 150 90 130 90 L 20 90 Q 0 90 20 90 L 130 90 Q 150 90 130 90 L 20 90 Q 0 90 20 90 L 130 90 Q 150 90 130 90 L 20 90 Q 0 90 20 90 L 130 90 Q 150 90 130 90 L 20 90 Q 0 90 20 90 L 130 90 Q 150 90 130 90 L 20 90 Q 0 90 20 90 L 130 90 Q 150 90 130 90 L 20 90 Q 0 90 20 90 L 130 90 Q 150 90 130 90 L 20 90 Q 0 90 20 90 L 130 90 Q 150 90 130 90 L 20 90 Q 0 90 20 90 L 130 90 Q 150 90 130 90 L 20 90 Q 0 90 20 90 L 130 90 Q 150 90 130 90 L 20 90 Q 0 90 20 90 L 130 90 Q 150 90 130 90 L 20 90 Q 0 90 20 90 L 130 90 Q 150 90 130 90 L 20 90 Q 0 90 20 90 L 130 90 Q 150 90 130 90 L 20 90 Q 0 90 20 90 L 130 90 Q 150 90 130 90 L 20 90 Q 0 90 20 90 L 130 90 Q 150 90 130 90 L 20 90 Q 0 90 20 90 L 130 90 Q 150 90 130 90 L 20 90 Q 0 90 20 90 L 130 90 Q 150 90 130 90 L 20 90 Q 0 90 20 90 L 130 90 Q 150 90 130 90 L 20 90 Q 0 90 20 90 L 130 90 Q 150 90 130 90 L 20 90 Q 0 90 20 90 L 130 90 Q 150 90 130 90 L 20 90 Q 0 90 20 90 L 130 90 Q 150 90 130 90 L 20 90 Q 0 90 20 90 L 130 90 Q 150 90 130 90 L 20 90 Q 0 90 20 90 L 130 90 Q 150 90 130 90 L 20 90 Q 0 90 20 90 L 130 90 Q 150 90 130 90 L 20 90 Q 0 90 20 90 L 130 90 Q 150 90 130 90 L 20 90 Q 0 90 20 90 L 130 90 Q 150 90 130 90 L 20 90 Q 0 90 20 90 L 130 90 Q 150 90 130 90 L 20 90 Q 0 90 20 90 L 130 90 Q 150 90 130 90 L 20 90 Q 0 90 20 90 L 130 90 Q 150 90 130 90 L 20 90 Q 0 90 20 90 L 130 90 Q 150 90 130 90 L 20 90 Q 0 90 20 90 L 130 90 Q 150 90 130 90 L 20 90 Q 0 90 20 90 L 130 90 Q 150 90 130 90 L 20 90 Q 0 90 20 90 L 130 90 Q 150 90 130 90 L 20 90 Q 0 90 20 90 L 130 90 Q 150 90 130 90 L 20 90 Q 0 90 20 90 L 130 90 Q 150 90 130 90 L 20 90 Q 0 90 20 90 L 130 90 Q 150 90 130 90 L 20 90 Q 0 90 20 90 L 130 90 Q 150 90 130 90 L 20 90 Q 0 90 20 90 L 130 90 Q 150 90 130 90 L 20 90 Q 0 90 20 90 L 130 90 Q 150 90 130 90 L 20 90 Q 0 90 20 90 L 130 90 Q 150 90 130 90 L 20 90 Q 0 90 20 90 L 130 90 Q 150 90 130 90 L 20 90 Q 0 90 20 90 L 130 90 Q 150 90 130 90 L 20 90 Q 0 90 20 90 L 130 90 Q 150 90 130 90 L 20 90 Q 0 90 20 90 L 130 90 Q 150 90 130 90 L 20 90 Q 0 90 20 90 L 130 90 Q 150 90 130 90 L 20 90 Q 0 90 20 90 L 130 90 Q 150 90 130 90 L 20 90 Q 0 90 20 90 L 130 90 Q 150 90 130 90 L 20 90 Q 0 90 20 90 L 130 90 Q 150 90 130 90 L 20 90 Q 0 90 20 90 L 130 90 Q 150 90 130 90 L 20 90 Q 0 90 20 90 L 130 90 Q 150 90 130 90 L 20 90 Q 0 90 20 90 L 130 90 Q 150 90 130 90 L 20 90 Q 0 90 20 90 L 130 90 Q 150 90 130 90 L 20 90 Q 0 90 20 90 L 130 90 Q 150 90 130 90 L 20 90 Q 0 90 20 90 L 130 90 Q 150 90 130 90 L 20 90 Q 0 90 20 90 L 130 90 Q 150 90 130 90 L 20 90 Q 0 90 20 90 L 130 90 Q 150 90 130 90 L 20 90 Q 0 90 20 90 L 130 90 Q 150 90 130 90 L 20 90 Q 0 90 20 90 L 130 90 Q 150 90 130 90 L 20 90 Q 0 90 20 90 L 130 90 Q 150 90 130 90 L 20 90 Q 0 90 20 90 L 130 90 Q 150 90 130 90 L 20 90 Q 0 90 20 90 L 130 90 Q 150 90 130 90 L 20 90 Q 0 90 20 90 L 130 90 Q 150 90 130 90 L 20 90 Q 0 90 20 90 L 130 90 Q 150 90 130 90 L 20 90 Q 0 90 20 90 L 130 90 Q 150 90 130 90 L 20 90 Q 0 90 20 90 L 130 90 Q 150 90 130 90 L 20 90 Q 0 90 20 90 L 130 90 Q 150 90 130 90 L 20 90 Q 0 90 20 90 L 130 90 Q 150 90 130 90 L 20 90 Q 0 90 20 90 L 130 90 Q 150 90 130 90 L 20 90 Q 0 90 20 90 L 130 90 Q 150 90 130 90 L 20 90 Q 0 90 20 90 L 130 90 Q 150 90 130 90 L 20 90 Q 0 90 20 90 L 130 90 Q 150 90 130 90 L 20 90 Q 0 90 20 90 L 130 90 Q 150 90 130 90 L 20 90 Q 0 90 20 90 L 130 90 Q 150 90 130 90 L 20 90 Q 0 90 20 90 L 130 90 Q 150 90 130 90 L 20 90 Q 0 90 20 90 L 130 90 Q 150 90 130 90 L 20 90 Q 0 90 20 90 L 130 90 Q 150 90 130 90 L 20 90 Q 0 90 20 90 L 130 90 Q 150 90 130 90 L 20 90 Q 0 90 20 90 L 130 90 Q 150 90 130 90 L 20 90 Q 0 90 20 90 L 130 90 Q 150 90 130 90 L 20 90 Q 0 90 20 90 L 130 90 Q 150 90 130 90 L 20 90 Q 0 90 20 90 L 130 90 Q 150 90 130 90 L 20 90 Q 0 90 20 90 L 130 90 Q 150 90 130 90 L 20 90 Q 0 90 20 90 L 130 90 Q 150 90 130 90 L 20 90 Q 0 90 20 90 L 130 90 Q 150 90 130 90 L 20 90 Q 0 90 20 90 L 130 90 Q 150 90 130 90 L 20 90 Q 0 90 20 90 L 130 90 Q 150 90 130 90 L 20 90 Q 0 90 20 90 L 130 90 Q 150 90 130 90 L 20 90 Q 0 90 20 90 L 130 90 Q 150 90 130 90 L 20 90 Q 0 90 20 90 L 130 90 Q 150 90 130 90 L 20 90 Q 0 90 20 90 L 130 90 Q 150 90 130 90 L 20 90 Q 0 90 20 90 L 130 90 Q 150 90 130 90 L 20 90 Q 0 90 20 90 L 130 90 Q 150 90 130 90 L 20 90 Q 0 90 20 90 L 130 90 Q 150 90 130 90 L 20 90 Q 0 90 20 90 L 130 90 Q 150 90 130 90 L 20 90 Q 0 90 20 90 L 130 90 Q 150 90 130 90 L 20 90 Q 0 90 20 90 L 130 90 Q 150 90 130 90 L 20 90 Q 0 90 20 90 L 130 90 Q 150 90 130 90 L 20 90 Q 0 90 0 70 L 0 20 Q 0 0 20 0 Z" fill="#156e89"/>
          </svg>