          <svg preserveAspectRatio="none" width="1050" height="450" viewBox="0 0 1050 450" xmlns="http://www.w3.org/2000/svg">
            <path d="M 150 0 L 280 0 Q 300 0 320 0 L 430 0 Q 450 0 470 0 L 580 0 Q 600 0 600 20 L 600 70 Q 600 90 620 90 L 730 90 Q 750 90 770 90 L 880 90 Q 900 90 900 110 L 900 160 Q 900 180 920 180 L 1030 180 Q 1050 180 1050 200 L 1050 250 Q 1050 270 1030 270 L 920 270 Q 900 270 880 270 L 770 270 Q 750 270 750 290 L 750 340 Q 750 360 730 360 L 620 360 Q 600 360 580 360 L 470 360 Q 450 360 450 380 L 450 430 Q 450 450 430 450 L 320 450 Q 300 450 280 450 L 170 450 Q 150 450 150 430 L 150 380 Q 150 360 130 360 L 20 360 Q 0 360 0 340 L 0 290 Q 0 270 0 250 L 0 200 Q 0 180 0 160 L 0 110 Q 0 90 20 90 L 130 90 Q 150 90 150 70 L 150 20 Q 150 0 170 0 Z" fill="#90CEE0"/>
          </svg>